<svg width="800" height="400" xmlns="http://www.w3.org/2000/svg">
  <defs>
    <linearGradient id="skyGradient" x1="0%" y1="0%" x2="0%" y2="100%">
      <stop offset="0%" style="stop-color:#87CEEB;stop-opacity:1" />
      <stop offset="100%" style="stop-color:#E0F6FF;stop-opacity:1" />
    </linearGradient>
  </defs>
  
  <!-- Sky -->
  <rect width="800" height="400" fill="url(#skyGradient)"/>
  
  <!-- Ground -->
  <rect y="300" width="800" height="100" fill="#90EE90"/>
  
  <!-- Building Main Structure -->
  <rect x="200" y="100" width="400" height="250" fill="#F4D9B5" stroke="#333" stroke-width="2"/>
  
  <!-- Roof -->
  <polygon points="200,100 600,100 500,40 300,40" fill="#D2691E" stroke="#333" stroke-width="2"/>
  
  <!-- Door -->
  <rect x="375" y="280" width="50" height="70" fill="#8B4513" stroke="#333" stroke-width="2"/>
  <circle cx="420" cy="315" r="4" fill="#FFD700"/>
  
  <!-- Windows Row 1 -->
  <rect x="240" y="130" width="40" height="40" fill="#87CEEB" stroke="#333" stroke-width="1"/>
  <line x1="260" y1="130" x2="260" y2="170" stroke="#333" stroke-width="1"/>
  <line x1="240" y1="150" x2="280" y2="150" stroke="#333" stroke-width="1"/>
  
  <rect x="320" y="130" width="40" height="40" fill="#87CEEB" stroke="#333" stroke-width="1"/>
  <line x1="340" y1="130" x2="340" y2="170" stroke="#333" stroke-width="1"/>
  <line x1="320" y1="150" x2="360" y2="150" stroke="#333" stroke-width="1"/>
  
  <rect x="440" y="130" width="40" height="40" fill="#87CEEB" stroke="#333" stroke-width="1"/>
  <line x1="460" y1="130" x2="460" y2="170" stroke="#333" stroke-width="1"/>
  <line x1="440" y1="150" x2="480" y2="150" stroke="#333" stroke-width="1"/>
  
  <rect x="520" y="130" width="40" height="40" fill="#87CEEB" stroke="#333" stroke-width="1"/>
  <line x1="540" y1="130" x2="540" y2="170" stroke="#333" stroke-width="1"/>
  <line x1="520" y1="150" x2="560" y2="150" stroke="#333" stroke-width="1"/>
  
  <!-- Windows Row 2 -->
  <rect x="240" y="200" width="40" height="40" fill="#87CEEB" stroke="#333" stroke-width="1"/>
  <line x1="260" y1="200" x2="260" y2="240" stroke="#333" stroke-width="1"/>
  <line x1="240" y1="220" x2="280" y2="220" stroke="#333" stroke-width="1"/>
  
  <rect x="320" y="200" width="40" height="40" fill="#87CEEB" stroke="#333" stroke-width="1"/>
  <line x1="340" y1="200" x2="340" y2="240" stroke="#333" stroke-width="1"/>
  <line x1="320" y1="220" x2="360" y2="220" stroke="#333" stroke-width="1"/>
  
  <rect x="440" y="200" width="40" height="40" fill="#87CEEB" stroke="#333" stroke-width="1"/>
  <line x1="460" y1="200" x2="460" y2="240" stroke="#333" stroke-width="1"/>
  <line x1="440" y1="220" x2="480" y2="220" stroke="#333" stroke-width="1"/>
  
  <rect x="520" y="200" width="40" height="40" fill="#87CEEB" stroke="#333" stroke-width="1"/>
  <line x1="540" y1="200" x2="540" y2="240" stroke="#333" stroke-width="1"/>
  <line x1="520" y1="220" x2="560" y2="220" stroke="#333" stroke-width="1"/>
  
  <!-- Flagpole -->
  <rect x="590" y="20" width="3" height="60" fill="#333"/>
  <polygon points="593,20 593,35 615,27" fill="#FF6B6B"/>
  
  <!-- Text -->
  <text x="400" y="360" font-size="24" font-weight="bold" text-anchor="middle" fill="#333">Little Angels Academy</text>
</svg>